<svg width="115" height="35" viewBox="0 0 115 35" fill="none" xmlns="http://www.w3.org/2000/svg">
<path d="M15.008 27L7.456 17.08V27H1.984V4.536H7.456V14.392L14.944 4.536H21.376L12.672 15.544L21.696 27H15.008ZM41.1285 17.784C41.1285 18.296 41.0965 18.8293 41.0325 19.384H28.6485C28.7338 20.4933 29.0858 21.3467 29.7045 21.944C30.3445 22.52 31.1232 22.808 32.0405 22.808C33.4058 22.808 34.3552 22.232 34.8885 21.08H40.7125C40.4138 22.2533 39.8698 23.3093 39.0805 24.248C38.3125 25.1867 37.3418 25.9227 36.1685 26.456C34.9952 26.9893 33.6832 27.256 32.2325 27.256C30.4832 27.256 28.9258 26.8827 27.5605 26.136C26.1952 25.3893 25.1285 24.3227 24.3605 22.936C23.5925 21.5493 23.2085 19.928 23.2085 18.072C23.2085 16.216 23.5818 14.5947 24.3285 13.208C25.0965 11.8213 26.1632 10.7547 27.5285 10.008C28.8938 9.26133 30.4618 8.888 32.2325 8.888C33.9605 8.888 35.4965 9.25067 36.8405 9.976C38.1845 10.7013 39.2298 11.736 39.9765 13.08C40.7445 14.424 41.1285 15.992 41.1285 17.784ZM35.5285 16.344C35.5285 15.4053 35.2085 14.6587 34.5685 14.104C33.9285 13.5493 33.1285 13.272 32.1685 13.272C31.2512 13.272 30.4725 13.5387 29.8325 14.072C29.2138 14.6053 28.8298 15.3627 28.6805 16.344H35.5285ZM49.4873 3.32V27H44.0153V3.32H49.4873ZM61.4848 21.88L65.3568 9.144H71.1808L64.8448 27H58.0928L51.7568 9.144H57.6128L61.4848 21.88ZM76.236 7.288C75.276 7.288 74.4867 7.01067 73.868 6.456C73.2707 5.88 72.972 5.176 72.972 4.344C72.972 3.49067 73.2707 2.78667 73.868 2.232C74.4867 1.656 75.276 1.368 76.236 1.368C77.1747 1.368 77.9427 1.656 78.54 2.232C79.1587 2.78667 79.468 3.49067 79.468 4.344C79.468 5.176 79.1587 5.88 78.54 6.456C77.9427 7.01067 77.1747 7.288 76.236 7.288ZM78.956 9.144V27H73.484V9.144H78.956ZM93.8015 8.952C95.8922 8.952 97.5562 9.63467 98.7935 11C100.052 12.344 100.682 14.2 100.682 16.568V27H95.2415V17.304C95.2415 16.1093 94.9322 15.1813 94.3135 14.52C93.6948 13.8587 92.8628 13.528 91.8175 13.528C90.7722 13.528 89.9402 13.8587 89.3215 14.52C88.7028 15.1813 88.3935 16.1093 88.3935 17.304V27H82.9215V9.144H88.3935V11.512C88.9482 10.7227 89.6948 10.104 90.6335 9.656C91.5722 9.18667 92.6282 8.952 93.8015 8.952Z" fill="black"/>
<circle cx="111" cy="31" r="4" fill="#FDA300"/>
</svg>
